{"title":"\nBaadshaho 2017 720p Esub HD Hindi GD @ GOPISAHI","magnet":"magnet:?xt=urn:btih:09298fd3b01cc7b17c2f49e4858292db6893ef5d&dn=Baadshaho+2017+720p+Esub+HD+Hindi+GD+%40+GOPISAHI&tr=udp%3A%2F%2Ftracker.leechers-paradise.org%3A6969&tr=udp%3A%2F%2Fzer0day.ch%3A1337&tr=udp%3A%2F%2Fopen.demonii.com%3A1337&tr=udp%3A%2F%2Ftracker.coppersurfer.tk%3A6969&tr=udp%3A%2F%2Fexodus.desync.com%3A6969","uploader":"jatt13","categoryP":"video","categoryS":"hd___movies","size":"795542664","seeders":"3","leechers":"148","description":"[center][img]https://i.imgur.com/e2pT0HM.jpg[/img]\r\nFormat                         : Matroska\r\nFormat version                 : Version 4 / Version 2\r\nFile size                      : 759 MiB\r\nDuration                       : 2 h 14 min\r\nOverall bit rate               : 787 kb/s\r\nMovie name                     : Baadshaho 2017 \r\n\r\nVideo\r\nFormat                         : AVC\r\nCodec ID                       : V_MPEG4/ISO/AVC\r\nDuration                       : 2 h 14 min\r\nBit rate                       : 700 kb/s\r\nWidth                          : 1 280 pixels\r\nHeight                         : 536 pixels\r\nDisplay aspect ratio           : 2.40:1\r\nFrame rate mode                : Constant\r\nFrame rate                     : 24.000 FPS\r\nStream size                    : 674 MiB (89%)\r\nWriting library                : x264 \r\n\r\nAudio\r\nFormat                         : AAC\r\nDuration                       : 2 h 14 min\r\nBit rate                       : 85.3 kb/s\r\nChannel(s)                     : 6 channels\r\nChannel positions              : Front: L C R, Side: L R, LFE\r\nSampling rate                  : 44.1 kHz\r\nFrame rate                     : 43.066 FPS (1024 SPF)\r\nStream size                    : 82.2 MiB (11%)\r\nLanguage                       : Hindi\r\n\r\nText\r\n\r\nLanguage                       : English\r\n[img]https://i.imgur.com/2Bkubhk.jpg[/img]\r\n[img]https://i.imgur.com/knPHFnO.jpg[/img]\r\n[img]https://i.imgur.com/DRj3n41.jpg[/img]\r\n[img]https://i.imgur.com/6FH9Ulj.jpg[/img][/center]","last_updated":"2017-10-18T12:04:34.805Z","parsed":{"xt":"urn:btih:09298fd3b01cc7b17c2f49e4858292db6893ef5d","dn":"Baadshaho 2017 720p Esub HD Hindi GD @ GOPISAHI","tr":["udp://exodus.desync.com:6969","udp://open.demonii.com:1337","udp://tracker.coppersurfer.tk:6969","udp://tracker.leechers-paradise.org:6969","udp://zer0day.ch:1337"],"infoHash":"09298fd3b01cc7b17c2f49e4858292db6893ef5d","infoHashBuffer":{"type":"Buffer","data":[9,41,143,211,176,28,199,177,124,47,73,228,133,130,146,219,104,147,239,93]},"name":"Baadshaho 2017 720p Esub HD Hindi GD @ GOPISAHI","announce":["udp://exodus.desync.com:6969","udp://open.demonii.com:1337","udp://tracker.coppersurfer.tk:6969","udp://tracker.leechers-paradise.org:6969","udp://zer0day.ch:1337"],"urlList":[]}}